<?xml version="1.0" encoding="UTF-8"?>
<svg version="1.1" xmlns="http://www.w3.org/2000/svg" width="266" height="266">
<path d="M0 0 C0.6084375 0.45503906 1.216875 0.91007812 1.84375 1.37890625 C3.59368949 2.70677304 3.59368949 2.70677304 6.5 2.4375 C7.6446875 1.509375 7.6446875 1.509375 8.8125 0.5625 C12.98205431 -2.73435689 16.60927123 -3.80678639 21.875 -3.5625 C27.04732897 -2.81111437 31.05051142 -0.48024495 34.5 3.4375 C38.39665083 10.01027298 38.05022079 16.89524401 38.1875 24.375 C38.22166016 25.63119141 38.25582031 26.88738281 38.29101562 28.18164062 C38.37313114 31.26683786 38.44240299 34.35176384 38.5 37.4375 C47.53976072 38.39595092 47.53976072 38.39595092 56.06640625 36.08984375 C58.0611291 34.31372066 59.78262042 32.48122249 61.5 30.4375 C63.46711242 28.39965994 65.47282013 26.41641368 67.5 24.4375 C68.16 24.4375 68.82 24.4375 69.5 24.4375 C69.5825 23.365 69.665 22.2925 69.75 21.1875 C70.56144114 17.13029432 71.32006408 15.94290406 74.5 13.4375 C77.99488277 11.69005862 81.78399637 12.59115042 85.5 13.4375 C88.52762876 15.48114941 89.28877488 16.80382464 90.4375 20.25 C90.51762792 24.33652403 89.42600105 26.86064091 87.5 30.4375 C84.36556646 32.52712236 83.62996308 32.69117554 80.0625 32.625 C79.30066406 32.61855469 78.53882813 32.61210938 77.75390625 32.60546875 C75.5 32.4375 75.5 32.4375 73.55859375 31.59375 C71.18585987 31.17196343 71.18585987 31.17196343 68.84375 33.67578125 C67.88296455 34.68846508 66.93545026 35.71386776 66 36.75 C59.1678585 44.14993528 59.1678585 44.14993528 54.39355469 44.66455078 C53.29382324 44.64884033 53.29382324 44.64884033 52.171875 44.6328125 C51.37265625 44.62636719 50.5734375 44.61992188 49.75 44.61328125 C48.925 44.59652344 48.1 44.57976562 47.25 44.5625 C46.40953125 44.55347656 45.5690625 44.54445312 44.703125 44.53515625 C42.63529396 44.51165817 40.56761005 44.47578908 38.5 44.4375 C38.44570041 46.18715358 38.40707177 47.93729787 38.375 49.6875 C38.35179687 50.66203125 38.32859375 51.6365625 38.3046875 52.640625 C38.50424427 55.498278 39.16050292 56.96244311 40.5 59.4375 C45.82014516 59.56133064 51.13944714 59.65194676 56.46069336 59.7121582 C58.26976132 59.7372639 60.07872822 59.77135595 61.88745117 59.81469727 C64.49162751 59.87552579 67.09446031 59.90374809 69.69921875 59.92578125 C70.50461594 59.95158768 71.31001312 59.9773941 72.13981628 60.00398254 C76.4924857 60.00614428 77.97690349 59.88360755 81.42114258 56.94628906 C82.10716553 56.11838867 82.79318848 55.29048828 83.5 54.4375 C86.27066127 53.59265821 88.68185948 53.82138831 91.5 54.4375 C94.59251553 56.25267216 96.08688714 57.72394142 97.875 60.8125 C98.68215425 64.20254786 98.60742882 66.11521355 97.5 69.4375 C94.37952625 72.85516173 92.5508674 74.29000984 87.9375 74.9375 C84.30367266 74.4089433 82.3271283 73.7657233 79.5 71.4375 C78.8671875 69.328125 78.8671875 69.328125 78.5 67.4375 C73.32141846 67.45693826 68.14453204 67.50870795 62.96655273 67.59008789 C61.20623009 67.61324364 59.44576939 67.62765794 57.68530273 67.63305664 C55.15000621 67.64236442 52.61687372 67.68339048 50.08203125 67.73046875 C49.29850784 67.7265361 48.51498444 67.72260345 47.7077179 67.71855164 C43.44541032 67.8316338 41.9622404 68.04348125 38.58862305 70.91918945 C37.89937744 71.75023193 37.21013184 72.58127441 36.5 73.4375 C33.67998673 74.84750664 31.62992745 74.68298451 28.5 74.4375 C25.69084539 73.16061154 23.99893236 72.12650183 22.1875 69.625 C21.25915367 66.67117076 21.12234065 64.521718 21.5 61.4375 C23.98151235 57.39355395 26.13347448 56.03059389 30.5 54.4375 C30.59911689 48.56596769 30.67158611 42.69492587 30.71972656 36.82275391 C30.73980169 34.82657382 30.76706789 32.83045225 30.80175781 30.83447266 C30.85045657 27.9598138 30.87300986 25.0859346 30.890625 22.2109375 C30.92159271 20.87934097 30.92159271 20.87934097 30.95318604 19.52084351 C30.95522999 13.8351637 30.1851335 10.81909784 26.5 6.4375 C23.87686301 4.28278033 21.76991934 4.32633916 18.5 4.5625 C14.71043459 5.15528118 12.82294056 6.27830084 10.5 9.4375 C9.54710065 12.29619806 9.37324386 14.06907648 9.36869812 17.03434753 C9.36468994 17.97770966 9.36068176 18.92107178 9.35655212 19.89302063 C9.35708084 20.9262999 9.35760956 21.95957916 9.3581543 23.02416992 C9.35294266 24.65878174 9.35294266 24.65878174 9.34762573 26.32641602 C9.34026603 28.69670792 9.33492179 31.06700674 9.33133507 33.43730736 C9.32417491 37.19095333 9.30851094 40.94446817 9.28999329 44.69807434 C9.23750686 55.37203165 9.1891245 66.0458922 9.17407227 76.7199707 C9.1647745 83.2463573 9.13463547 89.77247175 9.09275246 96.29873085 C9.08044791 98.78453396 9.07532019 101.27038349 9.07755089 103.75621605 C9.07990691 107.23911886 9.05771193 110.72108174 9.0300293 114.20385742 C9.03993141 115.73859459 9.03993141 115.73859459 9.05003357 117.30433655 C8.95602514 124.52377362 7.49916813 129.89053861 2.7890625 135.4609375 C-3.10354362 140.24695092 -8.22575413 141.94849462 -15.84765625 141.7421875 C-23.82968327 140.82525362 -29.19966712 137.59880051 -34.1953125 131.39453125 C-35.5 129.4375 -35.5 129.4375 -36.375 126.6875 C-38.05184785 123.3338043 -40.74104997 122.88192758 -44.1171875 121.51953125 C-50.96806846 118.40855744 -54.88693981 113.37756309 -57.5 106.4375 C-58.62226389 103.04247528 -58.41984725 100.17399042 -58.1875 96.625 C-58.13456704 92.25803052 -58.29100077 89.90993637 -61.3125 86.6875 C-61.85777344 86.14480469 -62.40304688 85.60210937 -62.96484375 85.04296875 C-68.01970503 79.7565871 -68.06753706 72.50348765 -68.06030273 65.58666992 C-67.7486717 57.79225986 -65.00427882 51.15218066 -59.61328125 45.4375 C-57.96216277 43.99753084 -56.27894152 42.71210243 -54.5 41.4375 C-53.84 40.7775 -53.18 40.1175 -52.5 39.4375 C-52.53324821 37.50910404 -52.56669148 35.58071105 -52.6015625 33.65234375 C-52.29584716 26.98539759 -49.15269225 22.31112154 -44.41015625 17.8203125 C-42.5 16.4375 -42.5 16.4375 -38.6875 15.4375 C-37.635625 15.1075 -36.58375 14.7775 -35.5 14.4375 C-34.77359045 12.12206957 -34.11568542 9.78480065 -33.5 7.4375 C-26.13751795 -3.3698131 -11.11602699 -7.11263153 0 0 Z M-27.4375 10.875 C-28.94383813 13.07578553 -29.4891759 14.35180919 -29.828125 17.03515625 C-30.04984375 17.82792969 -30.2715625 18.62070313 -30.5 19.4375 C-32.64453125 20.625 -32.64453125 20.625 -35.3125 21.4375 C-40.55096157 23.27844507 -42.99862308 25.43474617 -45.5 30.4375 C-45.33843483 32.68787207 -45.17086217 34.93781471 -45 37.1875 C-44.91910669 43.78704594 -44.91910669 43.78704594 -47.359375 46.51953125 C-49.68712534 47.96106292 -52.06100037 49.19690157 -54.5 50.4375 C-59.28738327 55.35086704 -61.64570307 60.57947294 -61.875 67.375 C-61.65079334 73.78926008 -60.22991193 78.4966232 -55.9375 83.3125 C-54.7309375 84.364375 -54.7309375 84.364375 -53.5 85.4375 C-51.5 87.4375 -51.5 87.4375 -51.41015625 90.921875 C-51.47211106 93.0563183 -51.56249983 95.18749649 -51.66601562 97.3203125 C-51.8323857 103.49321601 -50.27989167 107.36897725 -46.1875 112.125 C-41.63250561 116.04441378 -37.44369533 117.72991722 -31.5 118.4375 C-31.479375 119.2625 -31.45875 120.0875 -31.4375 120.9375 C-29.99436733 126.32519532 -26.32499516 130.60154927 -21.63671875 133.6484375 C-16.00244514 135.72910161 -9.42918736 135.26429458 -4 132.9375 C1.37600488 127.56149512 2.94972428 122.03237639 3.06433105 114.53915405 C3.05937622 113.55033234 3.05442139 112.56151062 3.04931641 111.54272461 C3.05953827 110.47990768 3.06976013 109.41709076 3.08029175 108.32206726 C3.1079708 104.82776029 3.1061799 101.33424694 3.1015625 97.83984375 C3.10934094 95.4018169 3.11801122 92.96379276 3.12753296 90.52577209 C3.14243177 85.42423704 3.14189237 80.32297889 3.13134766 75.22143555 C3.11974333 68.68871069 3.15366677 62.15711718 3.200037 55.62457943 C3.22951445 50.59303683 3.23125514 45.56176692 3.22501755 40.53015327 C3.22604325 38.12162594 3.23650541 35.7130832 3.25664139 33.30463982 C3.28135182 29.93663957 3.26780434 26.57084646 3.24462891 23.20288086 C3.25991638 22.21203491 3.27520386 21.22118896 3.29095459 20.20031738 C3.2005727 14.24974364 2.21050212 11.02933618 -1.98174477 6.73066044 C-5.73821382 3.53112122 -9.48647676 2.97185397 -14.3828125 3.12890625 C-19.90336684 3.93356269 -24.07708846 6.45238941 -27.4375 10.875 Z M79.5 18.4375 C78.18 19.4275 76.86 20.4175 75.5 21.4375 C76.16 23.0875 76.82 24.7375 77.5 26.4375 C79.15 26.1075 80.8 25.7775 82.5 25.4375 C82.83 23.7875 83.16 22.1375 83.5 20.4375 C82.18 19.7775 80.86 19.1175 79.5 18.4375 Z M29.5 61.4375 C28.20366379 62.50395115 28.20366379 62.50395115 28.4375 65 C28.458125 65.804375 28.47875 66.60875 28.5 67.4375 C30.33700789 68.20992269 30.33700789 68.20992269 32.5 68.4375 C34.27190909 67.08305699 34.27190909 67.08305699 35.5 65.4375 C34.84 64.1175 34.18 62.7975 33.5 61.4375 C32.18 61.4375 30.86 61.4375 29.5 61.4375 Z M87.5 60.4375 C86.18 61.7575 84.86 63.0775 83.5 64.4375 C84.49 65.7575 85.48 67.0775 86.5 68.4375 C87.82 68.1075 89.14 67.7775 90.5 67.4375 C90.83 65.7875 91.16 64.1375 91.5 62.4375 C90.18 61.7775 88.86 61.1175 87.5 60.4375 Z " fill="#CE5CFD" transform="translate(116.5,60.5625)"/>
<path d="M0 0 C2.70245732 1.68903582 3.6959132 2.81527782 4.48828125 5.90234375 C5.05615091 9.57639204 5.05004264 12.4090145 4 16 C7.94611664 20.36280438 7.94611664 20.36280438 13.29296875 22.2578125 C14.833687 22.1700664 16.37408209 22.07642471 17.9140625 21.9765625 C20 22 20 22 23 23.5 C25.70380215 26.87975269 26.29066472 29.70842096 26 34 C24.714013 37.21496749 23.39607064 38.66994113 20.75 40.875 C16.99479018 42.4112222 14.88323469 42.10949563 11 41 C8.125 38.9375 8.125 38.9375 6 36 C5.83964011 34.04360928 5.68044669 32.08703795 5.54296875 30.12890625 C4.38305887 25.58105815 0.73952096 22.59323564 -3 20 C-5.37558158 19.21196489 -7.60548815 18.77998103 -10.078125 18.421875 C-12 18 -12 18 -14.0625 16 C-15 14 -15 14 -15 12 C-25.23 12 -35.46 12 -46 12 C-46.66 10.68 -47.32 9.36 -48 8 C-47.34 7.01 -46.68 6.02 -46 5 C-42.99072266 4.63110352 -42.99072266 4.63110352 -39.1640625 4.62890625 C-37.77603925 4.61152002 -36.38801847 4.59393568 -35 4.57617188 C-32.81212747 4.56610648 -30.62441814 4.56250045 -28.43652344 4.56420898 C-26.32437536 4.56063311 -24.21348617 4.53326686 -22.1015625 4.50390625 C-20.83650879 4.50205322 -19.57145508 4.5002002 -18.26806641 4.49829102 C-14.44514768 3.91540015 -13.41525411 2.9178767 -11 0 C-7.49895613 -1.75052194 -3.72338307 -0.83477984 0 0 Z M-6 5 C-6.99 5.66 -7.98 6.32 -9 7 C-8.67 8.65 -8.34 10.3 -8 12 C-6.10820797 12.6814823 -6.10820797 12.6814823 -4 13 C-3.34 12.34 -2.68 11.68 -2 11 C-2.32041397 8.39719432 -2.32041397 8.39719432 -3 6 C-3.99 5.67 -4.98 5.34 -6 5 Z M14 28 C13.34 28.66 12.68 29.32 12 30 C12.32041397 32.60280568 12.32041397 32.60280568 13 35 C14.66611905 35.042721 16.33382885 35.04063832 18 35 C19.29633621 33.93354885 19.29633621 33.93354885 19.0625 31.4375 C19.041875 30.633125 19.02125 29.82875 19 29 C16.60280568 28.32041397 16.60280568 28.32041397 14 28 Z " fill="#CF5CFD" transform="translate(185,140)"/>
<path d="M0 0 C0.11719175 3.83307169 0.18758077 7.66567608 0.25 11.5 C0.30027344 13.11648437 0.30027344 13.11648437 0.3515625 14.765625 C0.44703249 22.5941643 -0.60802042 27.98848077 -5.7109375 34.0234375 C-10.76333915 38.12703133 -14.82993361 40.31000433 -21.5 39.875 C-25.91757582 39.26954545 -28.53720858 37.75247523 -32 35 C-31.67 33.35 -31.34 31.7 -31 30 C-30.01 29.67 -29.02 29.34 -28 29 C-27.29875 29.495 -26.5975 29.99 -25.875 30.5 C-22.32001473 32.35477492 -20.13374567 32.35583409 -16.22265625 31.78125 C-12.30142927 30.40296284 -10.11964288 27.46713014 -8 24 C-7.04831317 21.14493951 -6.8099054 19.09062718 -6.68359375 16.11328125 C-6.64169922 15.17548828 -6.59980469 14.23769531 -6.55664062 13.27148438 C-6.51732422 12.29501953 -6.47800781 11.31855469 -6.4375 10.3125 C-6.39431641 9.32443359 -6.35113281 8.33636719 -6.30664062 7.31835938 C-6.20058346 4.87904454 -6.09852286 2.43962887 -6 0 C-3.50907189 -1.24546405 -2.58919267 -0.7767578 0 0 Z " fill="#CD5AFB" transform="translate(154,162)"/>
<path d="M0 0 C3.88673357 2.47337591 5.9007877 4.5032224 7 9 C7.59306443 14.71883553 7.3507497 19.13600849 4 24 C-0.93973992 29.33178277 -6.36959257 32.57163632 -13.66015625 33.24609375 C-16.16448502 33.30735071 -18.51948702 33.35501766 -21 33 C-21.66 32.34 -22.32 31.68 -23 31 C-22.625 28.875 -22.625 28.875 -22 27 C-21.2265625 26.91363281 -20.453125 26.82726562 -19.65625 26.73828125 C-12.85224188 25.82041382 -7.21531724 24.68425361 -2 20 C0.87221324 15.74912441 -0.18202895 11.82602919 -1 7 C-3.64 6.67 -6.28 6.34 -9 6 C-9.33 4.35 -9.66 2.7 -10 1 C-6.4090342 -1.34793918 -4.07377631 -1.16393609 0 0 Z " fill="#CF5DFD" transform="translate(99,94)"/>
<path d="M0 0 C0.7425 0.2475 1.485 0.495 2.25 0.75 C2.58 1.74 2.91 2.73 3.25 3.75 C2.0434375 4.8328125 2.0434375 4.8328125 0.8125 5.9375 C-1.83766484 8.84621751 -2.65595129 9.89400306 -2.75 13.75 C-2.80683499 16.99904523 -2.80683499 16.99904523 -0.75 19.75 C3.16928419 21.21087366 7.13587658 22.03285922 11.25 22.75 C11.63218767 24.40614657 11.96395102 26.07457024 12.25 27.75 C11.25 28.75 11.25 28.75 8.1875 29.0625 C1.90052574 28.56353379 -2.07019003 26.28684742 -6.6875 22.0625 C-9.26805513 17.91797206 -10.05540971 14.61037736 -9.75 9.75 C-8.06229739 5.04219799 -5.60936019 -0.50994184 0 0 Z " fill="#CF5CFC" transform="translate(86.75,138.25)"/>
</svg>
